<svg xmlns="http://www.w3.org/2000/svg" xmlns:xlink="http://www.w3.org/1999/xlink" width="500" zoomAndPan="magnify" viewBox="0 0 375 374.999991" height="500" preserveAspectRatio="xMidYMid meet" version="1.0"><defs><g/><clipPath id="f3a474aa38"><path d="M 17.132812 29.203125 L 357.632812 29.203125 L 357.632812 154 L 17.132812 154 Z M 17.132812 29.203125 " clip-rule="nonzero"/></clipPath></defs><path fill="#0f0f0f" d="M 150.449219 164.238281 C 174.546875 161.777344 203.210938 163.640625 227.125 169.226562 C 241.042969 172.480469 263.398438 179.4375 270.246094 191.605469 C 270.207031 190.910156 270.0625 190.238281 269.796875 189.589844 C 270.21875 180.386719 270.675781 170.429688 271.140625 160.21875 C 271.128906 160.21875 271.113281 160.222656 271.101562 160.222656 C 271.46875 152.121094 271.84375 143.871094 272.210938 135.695312 C 270.910156 127.144531 255.148438 118.320312 230.9375 112.605469 C 207.183594 107 178.683594 105.007812 154.699219 107.273438 C 128.242188 109.777344 110.039062 117.070312 103.328125 127.84375 C 103.136719 128.855469 102.730469 131.300781 102.699219 133.726562 C 102.617188 139.652344 102.503906 146.859375 102.371094 154.171875 C 102.332031 154.160156 102.292969 154.148438 102.257812 154.136719 C 102.035156 165.960938 101.792969 175.164062 101.550781 181.082031 C 109.304688 173.980469 123.726562 166.96875 150.449219 164.238281 " fill-opacity="1" fill-rule="nonzero"/><g clip-path="url(#f3a474aa38)"><path fill="#0f0f0f" d="M 356.246094 107.46875 L 186.085938 29.507812 C 185.425781 29.203125 184.679688 29.203125 184.015625 29.503906 L 18.738281 105.058594 C 17.78125 105.496094 17.15625 106.496094 17.144531 107.613281 C 17.132812 108.726562 17.738281 109.742188 18.6875 110.203125 L 96.851562 148.234375 C 96.9375 143.34375 97.019531 138.09375 97.097656 132.515625 C 97.144531 128.699219 97.933594 125.03125 97.964844 124.878906 L 98.074219 124.382812 L 98.324219 123.957031 C 103.589844 115.019531 117.558594 103.640625 154.207031 100.175781 C 178.726562 97.859375 207.863281 99.894531 232.144531 105.625 C 248.375 109.457031 275.894531 118.242188 277.800781 134.039062 L 277.832031 134.300781 L 277.820312 134.566406 C 277.542969 140.757812 277.261719 146.988281 276.980469 153.167969 L 356.34375 112.59375 C 357.277344 112.117188 357.859375 111.101562 357.839844 109.996094 C 357.820312 108.894531 357.195312 107.90625 356.246094 107.46875 " fill-opacity="1" fill-rule="nonzero"/></g><path fill="#0f0f0f" d="M 61.871094 175.441406 L 56.613281 175.347656 L 57.6875 116.382812 L 62.945312 116.476562 L 61.871094 175.441406 " fill-opacity="1" fill-rule="nonzero"/><path fill="#0f0f0f" d="M 55.378906 182.636719 C 45.933594 195.367188 42.734375 212.757812 44.320312 233.765625 C 57.773438 245.097656 67.914062 244.707031 75.519531 235.320312 C 75.660156 194.847656 69.703125 174.742188 55.378906 182.636719 " fill-opacity="1" fill-rule="evenodd"/><path fill="#0f0f0f" d="M 53.105469 239.769531 L 51.996094 198.464844 L 48.050781 236.675781 C 49.804688 237.902344 51.472656 238.941406 53.105469 239.769531 " fill-opacity="1" fill-rule="evenodd"/><path fill="#0f0f0f" d="M 60.164062 217.054688 L 60.265625 234.589844 L 57.675781 211.671875 L 59.191406 240.875 C 60.855469 241.375 62.429688 241.652344 63.929688 241.765625 L 64.082031 241.746094 L 60.164062 217.054688 " fill-opacity="1" fill-rule="evenodd"/><path fill="#0f0f0f" d="M 66.851562 201.957031 L 67.242188 241.539062 C 68.25 241.1875 69.238281 240.722656 70.191406 240.140625 L 71.140625 221.007812 L 68.546875 219.710938 L 66.851562 201.957031 " fill-opacity="1" fill-rule="evenodd"/><path fill="#0f0f0f" d="M 61.136719 166.863281 C 66.585938 167.125 70.785156 171.523438 70.519531 176.683594 C 70.277344 181.84375 65.648438 185.800781 60.199219 185.539062 C 54.753906 185.261719 50.53125 180.863281 50.792969 175.699219 C 51.058594 170.539062 55.667969 166.585938 61.136719 166.863281 " fill-opacity="1" fill-rule="evenodd"/><g fill="#0f0f0f" fill-opacity="1"><g transform="translate(107.23667, 314.980948)"><g><path d="M 7.6875 -22.140625 C 7.6875 -7.6875 15.375 0 29.8125 0 L 50.109375 0 C 64.40625 0 72.234375 -7.6875 72.234375 -22.140625 L 72.234375 -64.859375 C 72.234375 -66.546875 71.3125 -67.328125 69.78125 -67.328125 L 43.953125 -67.328125 C 42.265625 -67.328125 41.5 -66.546875 41.5 -64.859375 L 41.5 -49.5 C 41.5 -47.953125 42.265625 -47.03125 43.953125 -47.03125 L 51.953125 -47.03125 L 51.953125 -26.4375 C 51.953125 -22.28125 49.796875 -20.28125 45.796875 -20.28125 L 34.734375 -20.28125 C 30.734375 -20.28125 28.59375 -22.28125 28.59375 -26.4375 L 28.59375 -96.53125 C 28.59375 -100.515625 30.59375 -102.671875 34.734375 -102.671875 L 45.796875 -102.671875 C 49.796875 -102.671875 51.953125 -100.515625 51.953125 -96.53125 L 51.953125 -84.84375 C 51.953125 -83.3125 52.71875 -82.390625 54.40625 -82.390625 L 69.78125 -82.390625 C 71.3125 -82.390625 72.234375 -83.3125 72.234375 -84.84375 L 72.234375 -100.828125 C 72.234375 -115.28125 64.40625 -122.96875 50.109375 -122.96875 L 29.8125 -122.96875 C 15.375 -122.96875 7.6875 -115.28125 7.6875 -100.828125 Z M 7.6875 -22.140625 "/></g></g></g><g fill="#0f0f0f" fill-opacity="1"><g transform="translate(187.162284, 314.980948)"><g><path d="M 29.8125 -122.96875 C 15.53125 -122.96875 7.6875 -115.28125 7.6875 -100.828125 L 7.6875 -64.5625 C 7.6875 -61.640625 9.0625 -59.796875 11.828125 -58.875 L 48.265625 -46.875 L 48.265625 -26.4375 C 48.265625 -22.28125 46.109375 -20.28125 42.109375 -20.28125 L 34.734375 -20.28125 C 30.890625 -20.28125 28.59375 -22.28125 28.59375 -26.4375 L 28.59375 -38.265625 C 28.59375 -39.96875 27.8125 -40.734375 26.125 -40.734375 L 10.140625 -40.734375 C 8.609375 -40.734375 7.6875 -39.96875 7.6875 -38.265625 L 7.6875 -22.140625 C 7.6875 -7.6875 15.53125 0 29.8125 0 L 47.03125 0 C 61.484375 0 69.171875 -7.6875 69.171875 -22.140625 L 69.171875 -57.640625 C 69.171875 -60.5625 67.78125 -62.25 65.171875 -63.328125 L 28.59375 -75.3125 L 28.59375 -96.53125 C 28.59375 -100.515625 30.890625 -102.671875 34.734375 -102.671875 L 42.109375 -102.671875 C 46.265625 -102.671875 48.265625 -100.515625 48.265625 -96.53125 L 48.265625 -84.53125 C 48.265625 -83 49.1875 -82.078125 50.71875 -82.078125 L 66.703125 -82.078125 C 68.390625 -82.078125 69.171875 -83 69.171875 -84.53125 L 69.171875 -100.828125 C 69.171875 -115.28125 61.484375 -122.96875 47.03125 -122.96875 Z M 29.8125 -122.96875 "/></g></g></g></svg>